Motion_mu04
version=1
nRows=12
nColumns=43
inDegrees=yes
endheader
time	pelvis_tilt	pelvis_list	pelvis_rotation	pelvis_tx	pelvis_ty	pelvis_tz	hip_flexion_r	hip_adduction_r	hip_rotation_r	knee_angle_r	ankle_angle_r	subtalar_angle_r	mtp_angle_r	hip_flexion_l	hip_adduction_l	hip_rotation_l	knee_angle_l	ankle_angle_l	subtalar_angle_l	mtp_angle_l	lumbar_extension	lumbar_bending	lumbar_rotation	neck_flexion	neck_lateral_bending	neck_rotation	arm_flex_r	arm_add_r	arm_rot_r	elbow_flex_r	pro_sup_r	wrist_flex_r	wrist_dev_r	hand_finger_flex_r	arm_flex_l	arm_add_l	arm_rot_l	elbow_flex_l	pro_sup_l	wrist_flex_l	wrist_dev_l	hand_finger_flex_l
      1.60000000	     -3.41212774	     13.26396888	    -84.60153499	      0.00160985	      1.77005626	      0.95941574	     39.14004707	     -8.96938496	    -13.11497737	    -23.93808684	    -13.58982341	     -6.68702845	    -13.84446305	     38.63595861	     -2.65082884	      2.60480155	    -29.91829218	     17.58909017	      9.55486126	    -28.34079143	    -30.94005093	      5.59092835	      3.50348707	     28.43326567	     -4.23579546	     14.17014300	   -246.29973453	   -144.19150433	   -213.12201958	    145.52078049	    154.67561846	     -7.23438286	     -4.31918756	     81.00308535	   -227.18766156	    226.63213721	   -194.06992799	    142.52072047	    155.26570910	    -27.71652063	     14.33019614	     90.00021046
      1.60250000	     -3.42971907	     13.47394157	    -84.67728840	      0.00166870	      1.77001669	      0.95952376	     39.05983054	     -8.95704506	    -13.12319443	    -24.00772187	    -13.59053172	     -6.68286596	    -13.84506911	     38.57340220	     -2.59895571	      2.62107530	    -29.99849594	     17.59144375	      9.55702275	    -28.34101493	    -30.98090270	      5.64743145	      3.53701821	     28.42198831	     -4.24162201	     14.23137144	   -246.38181204	   -144.37409142	   -213.02901367	    145.60260449	    154.69939139	     -7.23835727	     -4.33242954	     81.01835438	   -227.40655593	    226.53975305	   -194.02285276	    142.51251737	    155.28616309	    -27.76023112	     14.32879038	     90.00021046
      1.60500000	     -3.47175899	     13.62873191	    -84.77774556	      0.00153342	      1.76976368	      0.95949235	     39.08292198	     -8.92660371	    -13.15934422	    -24.36479128	    -13.55723333	     -6.65548658	    -13.84297005	     38.66290670	     -2.57641298	      2.77559001	    -30.49206876	     17.65797156	      9.53550329	    -28.33572871	    -31.09568519	      5.69915539	      3.60633268	     28.44805280	     -4.39134884	     14.72197926	   -246.48695850	   -144.63667787	   -213.16859154	    145.82568801	    155.00570264	     -7.28933075	     -4.37979600	     81.11312996	   -227.90821217	    226.52838652	   -194.35629241	    142.69022772	    155.44641375	    -28.13774862	     14.35594441	     90.00021046
      1.60750000	     -3.49054588	     13.82711345	    -84.84787299	      0.00158480	      1.76973767	      0.95960750	     38.99963976	     -8.91526792	    -13.15926767	    -24.45890552	    -13.54910380	     -6.65058595	    -13.84235857	     38.60205833	     -2.52469477	      2.79190754	    -30.59064141	     17.66836120	      9.53354855	    -28.33487047	    -31.15091863	      5.76459809	      3.60924813	     28.43944812	     -4.38969961	     14.80790826	   -246.53335936	   -144.84323865	   -213.06150379	    145.92259156	    155.05160330	     -7.29720814	     -4.40158153	     81.13151283	   -228.13757768	    226.37927835	   -194.28876893	    142.63491804	    155.47401477	    -28.18778862	     14.35667925	     90.00021046
      1.61000000	     -3.53003034	     13.94853507	    -84.93090542	      0.00138858	      1.76951018	      0.95967598	     39.03022437	     -8.89702254	    -13.16419802	    -24.93477467	    -13.45116251	     -6.62484985	    -13.83204880	     38.69911964	     -2.50202833	      2.96629535	    -31.18403151	     17.78044507	      9.49650651	    -28.32294385	    -31.28500474	      5.80679028	      3.62975556	     28.47878482	     -4.50699774	     15.44516764	   -246.56433765	   -145.10071080	   -213.11076433	    146.11444282	    155.50200693	     -7.37575350	     -4.49885572	     81.24286413	   -228.64361629	    226.32756349	   -194.66265576	    142.78423505	    155.66973696	    -28.62115843	     14.38661750	     90.00021046
      1.61250000	     -3.54459483	     14.14875386	    -84.99904125	      0.00145110	      1.76945410	      0.95983894	     38.94068126	     -8.88875530	    -13.16189471	    -25.01901251	    -13.43529119	     -6.62089780	    -13.83045959	     38.63071010	     -2.45015090	      2.97880801	    -31.26207513	     17.79133801	      9.49553203	    -28.32165282	    -31.32269625	      5.86638652	      3.62587791	     28.46631991	     -4.49071475	     15.52521032	   -246.63389711	   -145.31359914	   -212.99173871	    146.18249453	    155.55326738	     -7.38728467	     -4.52286031	     81.26075457	   -228.86201337	    226.16000311	   -194.59406899	    142.73534184	    155.69530809	    -28.66565030	     14.38583328	     90.00021046
      1.61500000	     -3.55233709	     14.31493778	    -85.04828117	      0.00125248	      1.76922696	      0.95998776	     38.97762775	     -8.90839214	    -13.14090942	    -25.49209096	    -12.86458626	     -6.46383873	    -13.77185904	     38.68582705	     -2.34726181	      3.23687423	    -31.69682092	     18.14169092	      9.39023699	    -28.27247200	    -31.41631072	      5.86294951	      3.33957892	     28.68302333	     -4.16531657	     17.11565206	   -246.39851104	   -145.26238169	   -212.66153231	    146.27153228	    156.94861763	     -7.81173581	     -4.93170772	     81.71962572	   -229.70538059	    225.77012571	   -195.08560028	    142.77004502	    156.41173524	    -30.11615275	     14.34385424	     90.00021046
      1.61750000	     -3.56841738	     14.49723498	    -85.11496374	      0.00121614	      1.76913885	      0.96021219	     38.88547538	     -8.90251870	    -13.14499412	    -25.60063635	    -12.89137881	     -6.45264347	    -13.77482662	     38.61279305	     -2.32185039	      3.24267609	    -31.80966213	     18.11579143	      9.39508950	    -28.27500381	    -31.44063843	      5.90314781	      3.35510044	     28.64296819	     -4.15833108	     17.12367779	   -246.45790602	   -145.53021060	   -212.59104652	    146.33595358	    156.93957861	     -7.82660568	     -4.93630643	     81.73350152	   -229.90795755	    225.65567204	   -195.04635565	    142.74191171	    156.42827632	    -30.14023800	     14.34176577	     90.00021046
      1.62000000	     -3.59138843	     14.59136014	    -85.20572415	      0.00099360	      1.76895458	      0.96026297	     38.90901598	     -8.90392849	    -13.16049222	    -26.11862849	    -12.93774592	     -6.40429090	    -13.77812405	     38.69196253	     -2.29692482	      3.34106582	    -32.39454889	     18.08050929	      9.40130358	    -28.27654851	    -31.58536016	      5.92282843	      3.44029011	     28.52873594	     -4.19649931	     17.30565695	   -246.56768394	   -145.89753448	   -212.63663113	    146.47356850	    157.07398078	     -7.95734092	     -4.97033514	     81.81963523	   -230.24477551	    225.65710275	   -195.32802415	    142.84123568	    156.54680373	    -30.37680721	     14.33941043	     90.00021046
      1.62250000	     -3.60720466	     14.77916227	    -85.28347427	      0.00098781	      1.76884963	      0.96044734	     38.82835044	     -8.89313628	    -13.16011123	    -26.23040112	    -12.93747842	     -6.39907607	    -13.77763924	     38.62430394	     -2.26375263	      3.35929315	    -32.50572567	     18.08019524	      9.40423394	    -28.27630393	    -31.60294877	      5.95752242	      3.45477466	     28.50200307	     -4.19032104	     17.34426768	   -246.62711233	   -146.13817615	   -212.55271295	    146.52876127	    157.09580269	     -7.98094424	     -4.98370655	     81.83419815	   -230.44315966	    225.49286567	   -195.27127936	    142.79995580	    156.56167980	    -30.39838616	     14.33584882	     90.00021046
      1.62500000	     -3.61433420	     15.00951368	    -85.39088940	      0.00086622	      1.76849533	      0.96041762	     39.05637981	     -8.90939569	    -13.03232135	    -26.90874173	    -12.47361798	     -6.22117107	    -13.71547625	     38.86295224	     -2.16875838	      3.60203111	    -33.13431102	     18.40584476	      9.32185166	    -28.22986052	    -31.60648992	      5.93737097	      3.31986136	     28.55611695	     -3.99439559	     18.39303184	   -246.57142354	   -146.20531278	   -212.37210714	    146.59032828	    158.07308666	     -8.73986433	     -5.33219223	     82.30097166	   -231.06669224	    225.16217481	   -195.64330270	    142.79648163	    157.07062226	    -31.41735885	     14.15808405	     90.00021046
      1.62750000	     -3.62817763	     15.18349572	    -85.48060564	      0.00083390	      1.76841195	      0.96053009	     38.97701300	     -8.89718648	    -13.04024493	    -27.02426000	    -12.50363879	     -6.20990081	    -13.71838026	     38.79027240	     -2.15235788	      3.61499001	    -33.25176413	     18.37571104	      9.32646537	    -28.23317003	    -31.64007094	      5.96239896	      3.35025816	     28.51619765	     -3.97459789	     18.40071016	   -246.61691715	   -146.47338248	   -212.31552515	    146.66353864	    158.06599864	     -8.76160907	     -5.33795792	     82.31761470	   -231.25887095	    225.02885702	   -195.60514601	    142.77187245	    157.08245681	    -31.43721775	     14.15279456	     90.00021046
